<?xml version="1.0" standalone="no"?>
<!DOCTYPE svg PUBLIC "-//W3C//DTD SVG 20010904//EN"
 "http://www.w3.org/TR/2001/REC-SVG-20010904/DTD/svg10.dtd">
<svg version="1.0" xmlns="http://www.w3.org/2000/svg"
 width="303.000000pt" height="120.000000pt" viewBox="0 0 303.000000 120.000000"
 preserveAspectRatio="xMidYMid meet">

<g transform="translate(0.000000,120.000000) scale(0.100000,-0.100000)"
fill="#000000" stroke="none">
<path d="M655 824 c-22 -13 -77 -35 -122 -50 -73 -24 -83 -30 -83 -50 0 -13 2
-24 4 -24 13 0 175 67 209 86 l40 23 66 -33 c71 -35 178 -72 186 -64 15 14
-12 37 -63 53 -31 9 -87 33 -124 51 -37 19 -69 34 -70 33 -2 0 -21 -12 -43
-25z"/>
<path d="M658 757 c-20 -13 -75 -36 -122 -52 l-86 -29 0 -36 c0 -120 172 -277
273 -249 40 11 128 69 165 108 29 31 61 102 65 143 2 28 -1 31 -84 62 -48 18
-102 43 -122 54 -42 27 -43 27 -89 -1z m90 -84 c3 -43 4 -43 41 -43 48 0 63
-18 59 -67 -3 -38 -3 -38 -50 -41 l-48 -3 0 -45 0 -45 -47 3 -48 3 -3 42 c-3
42 -3 42 -45 45 l-42 3 0 45 c0 44 1 45 35 48 46 5 60 18 60 57 0 40 2 42 48
41 36 -1 37 -2 40 -43z"/>
<path d="M659 594 c-7 -8 -3 -20 14 -39 20 -24 26 -26 44 -16 23 12 38 45 29
60 -8 13 -75 9 -87 -5z"/>
<path d="M1230 689 l0 -62 46 6 c27 3 50 12 58 22 12 17 14 17 34 -3 28 -28
73 -28 97 -2 l18 20 19 -20 c22 -24 66 -26 94 -5 22 17 3 21 -27 5 -43 -23
-83 42 -47 78 15 15 54 16 63 2 3 -5 11 -10 17 -10 7 0 6 6 -2 15 -7 9 -29 15
-52 15 -25 0 -41 -5 -44 -15 -4 -8 -10 -15 -16 -15 -5 0 -16 7 -24 15 -22 22
-77 19 -99 -5 l-18 -20 -14 20 c-11 15 -25 20 -59 20 l-44 0 0 -61z m71 41
c30 -17 23 -75 -11 -80 -34 -5 -40 1 -40 38 0 53 12 63 51 42z m143 -6 c9 -8
16 -24 16 -34 0 -38 -47 -64 -67 -37 -42 53 5 118 51 71z"/>
<path d="M1648 740 c13 -6 22 -15 21 -22 -1 -7 -1 -31 0 -52 1 -43 15 -41 17
2 1 15 2 37 3 49 1 14 9 23 24 26 12 2 -3 5 -33 5 -43 1 -50 -1 -32 -8z"/>
<path d="M1750 731 c-37 -70 45 -136 100 -81 l20 20 9 -22 c9 -23 9 -23 20 5
6 15 13 27 15 27 3 0 17 -12 32 -27 25 -27 26 -27 19 -5 -4 13 -2 29 5 37 7 8
9 26 6 40 -6 22 -12 25 -50 25 -31 0 -46 -5 -50 -16 -6 -16 -8 -16 -24 0 -26
23 -89 21 -102 -3z m78 -3 c36 -36 -4 -101 -48 -78 -37 20 -21 90 20 90 9 0
21 -5 28 -12z m127 -13 c0 -14 -8 -21 -27 -23 -24 -3 -28 0 -28 23 0 23 4 26
28 23 19 -2 27 -9 27 -23z"/>
<path d="M2010 691 l0 -61 39 0 c49 0 71 8 71 26 0 19 6 18 30 -6 26 -26 72
-26 95 0 l18 20 22 -20 c26 -24 62 -26 93 -4 20 14 23 14 28 0 8 -21 24 -10
24 15 0 26 12 24 40 -6 35 -38 46 -30 15 11 l-27 35 23 25 c12 13 18 24 12 24
-6 0 -16 -7 -23 -15 -7 -8 -19 -15 -26 -15 -8 0 -14 7 -14 15 0 18 -17 20 -23
3 -3 -10 -9 -10 -26 0 -29 17 -76 15 -96 -4 -15 -15 -17 -15 -34 1 -13 11 -32
15 -57 13 -33 -3 -41 -8 -56 -38 -16 -35 -23 -32 -30 15 -3 16 -12 21 -51 23
l-47 3 0 -60z m75 29 c0 -18 -33 -26 -47 -12 -6 6 -7 15 -3 22 10 16 50 8 50
-10z m143 8 c36 -36 -4 -101 -48 -78 -37 20 -21 90 20 90 9 0 21 -5 28 -12z
m139 -15 c12 -38 6 -60 -19 -66 -32 -9 -58 10 -58 41 0 55 61 74 77 25z m-270
-39 c10 -26 -28 -43 -56 -25 -21 14 -5 41 24 41 14 0 28 -7 32 -16z"/>
<path d="M2540 689 c0 -57 1 -60 23 -57 17 2 23 11 25 36 4 41 16 41 44 -3 25
-38 42 -44 52 -19 5 14 8 14 28 0 29 -20 72 -20 92 0 25 24 20 44 -11 44 -21
0 -24 -3 -15 -12 16 -16 15 -25 -4 -32 -29 -11 -55 12 -52 46 4 40 30 58 59
40 22 -14 35 -10 24 7 -10 17 -76 13 -97 -5 -16 -16 -18 -16 -24 0 -11 28 -24
18 -24 -19 0 -19 -4 -35 -9 -35 -5 0 -19 16 -31 35 -17 27 -28 35 -51 35 -29
0 -29 0 -29 -61z"/>
<path d="M345 605 c-86 -42 -155 -128 -133 -169 20 -36 102 -118 138 -136 35
-18 38 -18 105 1 38 10 80 19 92 19 13 0 23 3 23 8 -1 14 -60 72 -74 72 -9 0
-49 -11 -90 -24 -89 -28 -119 -21 -124 31 -3 27 3 35 43 63 25 17 59 36 76 42
29 10 31 13 25 47 -3 20 -6 44 -6 54 0 23 -15 21 -75 -8z"/>
<path d="M995 605 c-16 -79 -20 -71 55 -111 76 -40 95 -62 86 -100 -12 -45
-43 -49 -140 -19 l-88 27 -34 -33 c-40 -39 -40 -39 72 -64 73 -16 83 -16 110
-2 69 36 150 133 139 168 -15 47 -100 122 -167 148 -25 9 -28 8 -33 -14z"/>
<path d="M1254 495 c-10 -26 4 -45 34 -45 38 0 58 -22 37 -40 -12 -10 -21 -10
-41 -1 -33 15 -39 14 -24 -4 23 -28 100 -10 100 24 0 17 -26 31 -57 31 -23 0
-33 5 -33 15 0 22 29 30 52 16 22 -13 34 -9 23 8 -10 17 -85 14 -91 -4z"/>
<path d="M1399 474 c12 -19 21 -44 21 -54 0 -10 5 -22 10 -25 6 -3 10 4 10 17
0 13 9 38 21 57 24 40 18 53 -11 20 l-20 -24 -19 23 c-29 34 -36 26 -12 -14z"/>
<path d="M1508 498 c-10 -29 4 -46 43 -52 25 -4 39 -11 39 -21 0 -22 -29 -30
-52 -16 -11 7 -23 10 -26 6 -10 -9 20 -25 49 -25 29 0 49 17 49 41 0 19 -19
29 -54 29 -28 0 -36 8 -29 26 6 17 44 18 62 2 11 -11 13 -10 9 2 -6 20 -84 27
-90 8z"/>
<path d="M1642 503 c18 -5 25 -22 31 -83 3 -31 4 -29 6 10 2 54 12 73 37 68
15 -2 20 -14 22 -56 l3 -52 47 1 c45 2 45 2 12 8 -43 7 -50 41 -10 52 25 7 25
7 -3 8 -21 1 -28 5 -25 19 2 13 13 17 43 17 l40 0 1 -47 c1 -48 16 -67 22 -28
5 28 21 25 32 -6 12 -29 30 -28 45 4 13 30 35 28 35 -4 0 -14 4 -23 10 -19 6
3 10 31 10 61 0 68 -23 75 -47 14 -9 -22 -21 -40 -28 -40 -7 0 -20 18 -30 40
l-18 40 -126 -1 c-69 -1 -118 -3 -109 -6z"/>
<path d="M529 422 c26 -38 84 -83 133 -106 31 -15 42 -16 71 -5 48 17 120 71
148 111 l24 33 -40 -32 c-52 -41 -132 -83 -159 -83 -31 1 -94 32 -150 75 -48
37 -49 37 -27 7z"/>
</g>
</svg>
